<svg version="1.1" id="Layer_1" xmlns="http://www.w3.org/2000/svg" xmlns:xlink="http://www.w3.org/1999/xlink" x="0px" y="0px"
	 width="100%" viewBox="0 0 224 225" enable-background="new 0 0 224 225" xml:space="preserve">
<path fill="#F9FCFB" opacity="1.000000" stroke="none" 
	d="
M1.000000,110.000000 
	C1.000000,73.333344 1.000000,37.166679 1.000000,1.000015 
	C75.666649,1.000010 150.333298,1.000010 224.999954,1.000005 
	C224.999969,75.999962 224.999969,150.999924 224.999985,225.999908 
	C150.333374,225.999939 75.666763,225.999939 1.000070,225.999969 
	C1.000000,187.500000 1.000000,149.000000 1.000000,110.000000 
M211.483337,217.165573 
	C211.817093,219.365372 212.150848,221.565186 212.484604,223.764984 
	C212.921631,223.707382 213.358673,223.649796 213.795715,223.592194 
	C213.795715,219.466034 213.795715,215.339874 213.795715,209.694397 
	C211.973938,211.207657 210.707336,211.971664 209.844070,213.056595 
	C208.953445,214.175919 208.455292,215.607544 207.187057,216.488632 
	C206.018158,214.289764 207.288025,209.843399 202.297760,211.092545 
	C202.297760,215.327103 202.297760,219.473740 202.297760,224.874451 
	C203.720490,222.837982 204.415054,221.843796 205.154861,220.784836 
	C206.335312,222.058228 207.245636,223.040253 208.823776,224.742661 
	C209.633591,221.641815 210.201202,219.468338 211.483337,217.165573 
M191.288315,172.270248 
	C190.612289,172.518005 189.936264,172.765762 188.700912,173.532425 
	C186.071777,180.113342 184.527161,180.827545 178.108887,177.572556 
	C175.022995,176.007568 172.361832,173.627075 169.358856,171.871521 
	C164.710342,169.153946 164.640854,166.037094 167.482178,161.768448 
	C171.524857,155.694901 171.157425,149.111206 168.070679,142.762115 
	C166.263306,139.044586 164.195587,135.358032 161.668182,132.105804 
	C156.184799,125.049904 154.791397,117.649773 158.098236,109.247787 
	C162.487320,98.096085 161.817230,87.127594 156.768829,76.155113 
	C156.922043,76.025421 157.075272,75.895737 157.879776,75.974602 
	C166.536102,85.629776 167.674881,97.135704 163.909103,108.634544 
	C160.993927,117.536041 162.389328,124.644424 167.134720,132.183182 
	C170.536362,137.587204 172.818527,143.692307 175.664413,149.452881 
	C176.227798,150.593307 176.920654,151.762512 177.833221,152.621658 
	C181.817093,156.372299 185.899643,160.022003 192.136826,159.284760 
	C191.884933,161.780365 191.689148,163.720062 191.540039,165.197281 
	C196.747391,167.507217 201.542786,169.634430 206.662643,171.905563 
	C207.867294,169.743423 208.967560,167.768600 210.166931,165.615936 
	C204.423279,162.510864 199.051743,159.606964 193.215759,156.451981 
	C193.483643,155.323517 193.887054,153.624084 194.555222,150.809402 
	C201.022034,153.702881 206.939423,156.350525 213.366714,159.226303 
	C214.510574,156.568527 215.501236,154.266739 216.401535,152.174896 
	C210.112274,149.024811 204.669540,145.715347 198.803772,143.553864 
	C194.470627,141.957123 193.936142,139.924057 195.977936,135.208160 
	C201.203903,137.726868 206.188156,140.216187 211.245789,142.546219 
	C218.807358,146.029785 219.729172,145.470825 220.259811,137.405685 
	C220.279037,137.113617 220.089493,136.807816 220.200851,137.169174 
	C215.989380,135.427216 212.160828,133.955414 208.429840,132.267853 
	C204.949814,130.693802 201.730179,128.122650 198.111511,127.384354 
	C193.692581,126.482765 192.228134,124.481422 192.872726,119.741554 
	C195.278748,120.147499 197.799896,120.200172 200.032318,121.029785 
	C204.230835,122.590019 208.197525,124.766853 212.377350,126.385956 
	C221.050903,129.745758 223.667358,127.772537 223.013657,118.603683 
	C222.992493,118.306854 222.717560,118.028114 222.467590,117.569824 
	C216.029480,119.106682 210.146835,117.352379 204.347900,114.402313 
	C200.675232,112.533928 196.778519,110.832024 192.784729,109.946571 
	C188.873917,109.079506 186.994598,107.288651 186.935989,102.559380 
	C188.909943,102.559380 190.972214,102.067894 192.657532,102.656204 
	C196.861908,104.123863 200.820984,106.290459 205.018509,107.782661 
	C208.865616,109.150269 212.870056,110.757278 216.851913,110.893555 
	C221.986954,111.069290 223.475449,108.851807 222.933289,103.732552 
	C222.443420,99.107147 221.831100,94.479912 220.967819,89.911110 
	C211.320053,38.850601 158.910034,-8.897249 90.961845,4.416840 
	C42.341393,13.943760 8.216979,52.773045 2.649107,102.284805 
	C1.887983,109.053024 4.040926,111.542305 10.837846,110.716583 
	C14.213100,110.306534 17.487394,108.777542 20.715597,107.519310 
	C24.577585,106.014053 28.263077,104.024025 32.180546,102.706352 
	C34.178299,102.034393 36.516270,102.373886 38.922894,102.244209 
	C37.510899,108.903442 37.481503,108.759491 32.533146,109.770065 
	C30.136005,110.259621 27.717724,111.124382 25.577543,112.305748 
	C18.513096,116.205231 11.355083,119.496826 2.532208,117.490211 
	C2.745904,121.047600 2.919226,123.932884 3.085614,126.702744 
	C8.987323,128.573959 13.671435,126.439743 18.354725,124.156616 
	C22.904829,121.938408 27.294079,119.035095 32.791313,120.095528 
	C33.275780,124.424583 32.041615,126.856522 27.444706,127.452065 
	C24.926167,127.778343 22.601303,129.538757 20.169453,130.607773 
	C15.216023,132.785248 10.249284,134.932449 4.910233,137.256577 
	C5.332867,138.918594 5.935928,141.290131 6.848416,144.878510 
	C10.924094,143.237320 14.653481,141.731339 18.386189,140.233658 
	C22.206619,138.700790 26.030306,137.176056 29.852568,135.647751 
	C30.335814,136.236191 30.819061,136.824631 31.302307,137.413071 
	C30.366051,139.214096 29.891834,141.861420 28.413067,142.668747 
	C22.213476,146.053436 15.713006,148.887009 9.325403,151.927643 
	C10.101750,159.675659 11.646016,160.473145 18.298962,156.578171 
	C20.593105,155.235062 22.808643,153.698929 25.235996,152.663223 
	C26.797297,151.997055 29.364056,151.270859 30.255590,152.023041 
	C31.562618,153.125748 31.773516,155.527679 32.158463,156.577118 
	C26.054911,159.895584 20.899500,162.698563 15.815969,165.462448 
	C18.394062,172.708755 18.699562,172.757919 24.526806,169.497040 
	C27.511457,167.826889 30.734165,166.582138 33.919498,165.112747 
	C33.750942,163.347687 33.568226,161.434402 33.354580,159.197205 
	C34.873062,159.197205 36.061794,159.402664 37.152466,159.162598 
	C42.657631,157.950867 47.409431,155.354141 50.082584,150.238800 
	C53.220028,144.235016 55.342804,137.637054 58.947147,131.957779 
	C63.202957,125.252022 63.982147,118.606850 62.358616,111.061821 
	C61.107388,105.247002 60.310089,99.252022 60.128529,93.312157 
	C59.937813,87.072769 64.197769,79.430000 68.654716,77.160248 
	C63.414341,88.135681 63.563301,98.941208 67.564957,109.520050 
	C70.654243,117.686928 69.383522,124.783218 64.461288,131.609192 
	C63.196701,133.362869 62.101448,135.238861 60.833111,136.989624 
	C54.371925,145.908447 54.084393,155.098984 59.511868,164.582306 
	C60.147861,165.693558 60.684517,166.861664 61.312740,168.092621 
	C54.853275,173.488983 48.930435,179.227066 39.712696,179.373672 
	C39.278732,178.882431 38.733757,178.451691 38.427917,177.890610 
	C35.261150,172.081100 33.997223,171.699020 28.043699,174.993790 
	C26.500423,175.847839 25.053278,176.875610 23.193199,178.058014 
	C24.989216,180.286865 26.469294,182.123642 27.138205,182.953751 
	C31.842604,182.120605 35.438465,181.483780 39.520081,181.374924 
	C42.002377,184.114304 41.205429,185.672485 37.792473,186.492325 
	C35.987438,186.925934 34.252155,187.649933 31.802904,188.471863 
	C35.051079,192.266754 37.001614,195.909576 42.423603,193.131943 
	C43.683804,192.486343 46.396488,194.676041 49.369488,195.963181 
	C46.737003,197.973587 45.513206,198.908188 43.661247,200.322525 
	C47.583569,203.073929 50.972744,205.451355 54.906189,208.210571 
	C60.028721,197.805771 64.689438,188.338989 69.156372,179.265823 
	C71.787643,183.641815 70.184761,188.407043 67.395554,193.005371 
	C65.153923,196.700928 62.482357,200.158951 60.490673,203.977493 
	C57.449036,209.809036 58.305618,211.400360 63.962387,213.205658 
	C66.027229,208.796906 67.603287,204.206604 70.139961,200.228928 
	C80.776382,183.550400 80.808281,181.784256 68.690002,165.915054 
	C59.879349,154.377258 59.845089,147.370911 68.559555,135.861862 
	C69.463684,134.667786 70.361038,133.457672 71.374481,132.359177 
	C76.247726,127.076958 77.288818,120.954231 75.281929,114.238731 
	C73.855278,109.464790 72.089882,104.790810 70.705963,100.005623 
	C68.214249,91.389961 71.795425,78.381310 78.238358,73.741364 
	C77.869217,75.473259 77.789230,76.770142 77.319931,77.906189 
	C73.129204,88.050919 73.073891,97.954468 78.741837,107.631348 
	C79.574913,109.053665 80.128426,110.649689 80.725945,112.198265 
	C83.098251,118.346596 82.896729,124.174011 78.835701,129.695267 
	C75.979103,133.579010 73.117043,137.506989 70.758904,141.697418 
	C67.488853,147.508301 66.676498,153.743942 70.190773,159.771118 
	C72.018433,162.905655 74.420403,165.730835 76.744530,168.545822 
	C85.072472,178.632645 85.462921,185.929535 78.485374,197.189728 
	C76.049370,201.120880 73.502052,205.167801 72.103989,209.515091 
	C69.872887,216.452728 71.474106,218.158173 79.230186,218.556366 
	C77.769203,211.487656 80.585342,205.567337 84.055374,199.736588 
	C86.257935,196.035599 88.466393,192.238037 89.920761,188.212311 
	C93.153946,179.262848 88.463524,172.605240 83.018234,166.113251 
	C73.105659,154.295258 73.045158,147.936203 82.207779,135.477234 
	C82.799835,134.672165 83.360504,133.840744 83.996368,133.071655 
	C88.634209,127.462013 89.764130,121.176132 87.367393,114.357071 
	C85.770462,109.813583 83.777298,105.410538 82.130714,100.883087 
	C77.868576,89.163910 80.266373,77.504616 88.717773,70.630234 
	C88.860245,70.796562 89.002716,70.962898 88.969193,71.818726 
	C83.087265,80.410339 82.921036,89.554871 86.491417,98.978920 
	C88.317703,103.799423 90.179230,108.627464 92.400986,113.272171 
	C95.448280,119.642723 94.605415,125.536308 91.012230,131.291245 
	C88.808434,134.820877 86.371620,138.217346 84.355362,141.849014 
	C80.813721,148.228241 80.798431,154.570389 85.356834,160.574753 
	C87.169334,162.962189 89.028175,165.315842 90.914017,167.645950 
	C97.612694,175.922684 98.517128,184.668625 93.257545,194.032471 
	C91.221199,197.657852 89.028244,201.275284 87.635345,205.157776 
	C86.430344,208.516510 85.671196,212.258942 85.753975,215.807526 
	C85.907402,222.384262 87.204819,223.153061 94.432289,222.580826 
	C91.288979,215.084641 92.617584,207.966736 96.124268,201.005005 
	C98.293350,196.698761 100.374207,192.345947 102.400589,187.970474 
	C105.355255,181.590607 104.202477,175.619827 100.251060,170.082520 
	C97.640144,166.423752 94.845512,162.895889 92.125954,159.314880 
	C87.638153,153.405518 87.688965,147.456055 91.650162,141.252304 
	C94.503937,136.782898 96.815414,131.952332 99.858955,127.627846 
	C100.794373,126.298744 103.726028,125.080269 105.092827,125.582428 
	C109.940277,127.363380 114.396652,126.988808 119.210236,125.527573 
	C120.925591,125.006836 124.072807,125.884300 125.163895,127.246735 
	C128.462616,131.365860 130.943588,136.126831 133.984818,140.468460 
	C137.979752,146.171616 138.162262,151.987747 134.609421,157.770676 
	C132.353119,161.443237 129.664368,164.879257 126.922226,168.218246 
	C120.873886,175.583069 119.720581,182.988510 124.877014,191.564117 
	C130.596329,201.075851 136.003403,210.948837 131.591736,222.978394 
	C140.075577,221.003479 140.965546,220.034851 140.175766,212.164139 
	C139.866714,209.084106 138.884354,205.966293 137.644760,203.110458 
	C135.927170,199.153397 133.826523,195.339035 131.623764,191.621262 
	C127.471649,184.613449 128.352234,177.912292 132.623154,171.433289 
	C135.001572,167.825211 137.532333,164.290955 140.279266,160.958176 
	C145.289246,154.879700 145.315948,148.449585 141.757889,141.890717 
	C139.702515,138.101868 137.117935,134.589096 134.644180,131.040848 
	C131.115158,125.978920 130.567490,120.549858 132.645325,114.886711 
	C133.843842,111.620163 135.363541,108.458641 136.911179,105.335335 
	C142.136185,94.790726 143.643112,84.157013 138.032394,73.239517 
	C137.780502,72.749397 137.911377,72.062576 137.863968,71.467369 
	C144.040817,76.937019 146.990921,83.751205 145.462112,91.657806 
	C144.207809,98.144798 142.260117,104.601326 139.759171,110.719566 
	C135.934052,120.077179 137.340225,127.846329 143.861755,135.616440 
	C153.260925,146.815155 152.965836,153.267212 144.021805,164.953354 
	C132.238251,180.349564 132.101913,182.804688 142.102203,199.609406 
	C142.272446,199.895462 142.483063,200.157486 142.653305,200.443542 
	C145.944855,205.974380 148.427414,211.718338 147.131241,218.424393 
	C155.878464,217.205475 155.805801,215.968353 153.565018,208.282837 
	C152.070801,203.158005 148.635056,198.534378 145.722321,193.904053 
	C141.884781,187.803589 141.576614,181.581497 144.983109,175.455261 
	C147.557770,170.825012 150.727020,166.494431 153.917480,162.245087 
	C158.254486,156.468674 159.109436,150.288483 155.905472,143.968155 
	C153.133881,138.500732 149.757553,133.321136 146.406067,128.172150 
	C143.546051,123.778252 142.970749,119.194298 144.569107,114.348434 
	C145.555801,111.356987 146.869568,108.467491 148.132874,105.574303 
	C152.398834,95.804352 152.010483,86.100647 147.853760,76.416542 
	C147.522598,75.645065 147.343063,74.808495 147.093079,74.002174 
	C148.862564,74.112663 150.114426,74.671783 150.683350,75.634499 
	C154.674072,82.387215 157.194550,89.539696 155.331345,97.515404 
	C154.236023,102.204102 153.160614,106.941330 151.499832,111.444115 
	C148.773193,118.836746 149.802216,125.445778 154.382248,131.710419 
	C156.738235,134.932999 159.082687,138.179901 161.182205,141.570679 
	C164.944519,147.646896 164.938385,153.893661 161.136887,159.937759 
	C158.746979,163.737534 156.095963,167.383102 153.411255,170.985443 
	C146.621597,180.095840 146.471588,183.793137 152.130768,193.574677 
	C155.737946,199.809464 159.010437,206.237869 162.537308,212.772720 
	C167.720901,211.291748 168.454407,210.216400 165.723114,204.822433 
	C163.326126,200.088608 160.121246,195.770660 157.556198,191.113159 
	C155.161942,186.765732 154.949203,182.232666 157.567673,177.737808 
	C157.681137,189.779892 167.328003,197.209381 171.345642,207.929474 
	C175.054413,205.291916 178.330185,202.962296 181.940628,200.394669 
	C179.864548,198.755753 178.497406,197.676498 175.688995,195.459473 
	C178.691132,194.335556 181.159424,192.470947 182.477402,193.083099 
	C187.799118,195.554764 190.023819,192.475235 192.652359,188.423447 
	C189.787476,187.027969 187.174530,185.755219 184.581940,184.492386 
	C186.492447,179.539322 187.524399,179.069153 193.393677,181.820969 
	C197.060379,183.540131 199.680084,183.661514 201.689362,178.930756 
	C201.157013,178.197754 200.624649,177.464752 199.650818,176.223953 
	C197.003143,175.057602 194.355453,173.891235 191.288315,172.270248 
M195.444763,223.601288 
	C197.955612,219.885574 193.128464,213.574600 201.433487,211.387665 
	C196.538177,211.387665 193.320602,211.387665 190.103027,211.387665 
	C189.517303,211.910797 188.931595,212.433929 188.345871,212.957062 
	C195.300537,211.798798 193.578491,215.612518 193.836349,218.335175 
	C194.003174,220.096588 194.316452,221.844147 195.444763,223.601288 
z"/>
<path fill="#07734E" opacity="1.000000" stroke="none" 
	d="
M156.263397,76.482506 
	C161.817230,87.127594 162.487320,98.096085 158.098236,109.247787 
	C154.791397,117.649773 156.184799,125.049904 161.668182,132.105804 
	C164.195587,135.358032 166.263306,139.044586 168.070679,142.762115 
	C171.157425,149.111206 171.524857,155.694901 167.482178,161.768448 
	C164.640854,166.037094 164.710342,169.153946 169.358856,171.871521 
	C172.361832,173.627075 175.022995,176.007568 178.108887,177.572556 
	C184.527161,180.827545 186.071777,180.113342 189.390839,173.256393 
	C190.623108,172.895203 191.165436,172.810043 191.707779,172.724884 
	C194.355453,173.891235 197.003143,175.057602 199.959778,176.818100 
	C200.562393,178.051407 200.856018,178.690552 201.149658,179.329712 
	C199.680084,183.661514 197.060379,183.540131 193.393677,181.820969 
	C187.524399,179.069153 186.492447,179.539322 184.581940,184.492386 
	C187.174530,185.755219 189.787476,187.027969 192.652359,188.423447 
	C190.023819,192.475235 187.799118,195.554764 182.477402,193.083099 
	C181.159424,192.470947 178.691132,194.335556 175.688995,195.459473 
	C178.497406,197.676498 179.864548,198.755753 181.940628,200.394669 
	C178.330185,202.962296 175.054413,205.291916 171.345642,207.929474 
	C167.328003,197.209381 157.681137,189.779892 157.567673,177.737808 
	C154.949203,182.232666 155.161942,186.765732 157.556198,191.113159 
	C160.121246,195.770660 163.326126,200.088608 165.723114,204.822433 
	C168.454407,210.216400 167.720901,211.291748 162.537308,212.772720 
	C159.010437,206.237869 155.737946,199.809464 152.130768,193.574677 
	C146.471588,183.793137 146.621597,180.095840 153.411255,170.985443 
	C156.095963,167.383102 158.746979,163.737534 161.136887,159.937759 
	C164.938385,153.893661 164.944519,147.646896 161.182205,141.570679 
	C159.082687,138.179901 156.738235,134.932999 154.382248,131.710419 
	C149.802216,125.445778 148.773193,118.836746 151.499832,111.444115 
	C153.160614,106.941330 154.236023,102.204102 155.331345,97.515404 
	C157.194550,89.539696 154.674072,82.387215 150.683350,75.634499 
	C150.114426,74.671783 148.862564,74.112663 147.093079,74.002174 
	C147.343063,74.808495 147.522598,75.645065 147.853760,76.416542 
	C152.010483,86.100647 152.398834,95.804352 148.132874,105.574303 
	C146.869568,108.467491 145.555801,111.356987 144.569107,114.348434 
	C142.970749,119.194298 143.546051,123.778252 146.406067,128.172150 
	C149.757553,133.321136 153.133881,138.500732 155.905472,143.968155 
	C159.109436,150.288483 158.254486,156.468674 153.917480,162.245087 
	C150.727020,166.494431 147.557770,170.825012 144.983109,175.455261 
	C141.576614,181.581497 141.884781,187.803589 145.722321,193.904053 
	C148.635056,198.534378 152.070801,203.158005 153.565018,208.282837 
	C155.805801,215.968353 155.878464,217.205475 147.131241,218.424393 
	C148.427414,211.718338 145.944855,205.974380 142.653305,200.443542 
	C142.483063,200.157486 142.272446,199.895462 142.102203,199.609406 
	C132.101913,182.804688 132.238251,180.349564 144.021805,164.953354 
	C152.965836,153.267212 153.260925,146.815155 143.861755,135.616440 
	C137.340225,127.846329 135.934052,120.077179 139.759171,110.719566 
	C142.260117,104.601326 144.207809,98.144798 145.462112,91.657806 
	C146.990921,83.751205 144.040817,76.937019 137.863968,71.467369 
	C137.911377,72.062576 137.780502,72.749397 138.032394,73.239517 
	C143.643112,84.157013 142.136185,94.790726 136.911179,105.335335 
	C135.363541,108.458641 133.843842,111.620163 132.645325,114.886711 
	C130.567490,120.549858 131.115158,125.978920 134.644180,131.040848 
	C137.117935,134.589096 139.702515,138.101868 141.757889,141.890717 
	C145.315948,148.449585 145.289246,154.879700 140.279266,160.958176 
	C137.532333,164.290955 135.001572,167.825211 132.623154,171.433289 
	C128.352234,177.912292 127.471649,184.613449 131.623764,191.621262 
	C133.826523,195.339035 135.927170,199.153397 137.644760,203.110458 
	C138.884354,205.966293 139.866714,209.084106 140.175766,212.164139 
	C140.965546,220.034851 140.075577,221.003479 131.591736,222.978394 
	C136.003403,210.948837 130.596329,201.075851 124.877014,191.564117 
	C119.720581,182.988510 120.873886,175.583069 126.922226,168.218246 
	C129.664368,164.879257 132.353119,161.443237 134.609421,157.770676 
	C138.162262,151.987747 137.979752,146.171616 133.984818,140.468460 
	C130.943588,136.126831 128.462616,131.365860 125.163895,127.246735 
	C124.072807,125.884300 120.925591,125.006836 119.210236,125.527573 
	C114.396652,126.988808 109.940277,127.363380 105.092827,125.582428 
	C103.726028,125.080269 100.794373,126.298744 99.858955,127.627846 
	C96.815414,131.952332 94.503937,136.782898 91.650162,141.252304 
	C87.688965,147.456055 87.638153,153.405518 92.125954,159.314880 
	C94.845512,162.895889 97.640144,166.423752 100.251060,170.082520 
	C104.202477,175.619827 105.355255,181.590607 102.400589,187.970474 
	C100.374207,192.345947 98.293350,196.698761 96.124268,201.005005 
	C92.617584,207.966736 91.288979,215.084641 94.432289,222.580826 
	C87.204819,223.153061 85.907402,222.384262 85.753975,215.807526 
	C85.671196,212.258942 86.430344,208.516510 87.635345,205.157776 
	C89.028244,201.275284 91.221199,197.657852 93.257545,194.032471 
	C98.517128,184.668625 97.612694,175.922684 90.914017,167.645950 
	C89.028175,165.315842 87.169334,162.962189 85.356834,160.574753 
	C80.798431,154.570389 80.813721,148.228241 84.355362,141.849014 
	C86.371620,138.217346 88.808434,134.820877 91.012230,131.291245 
	C94.605415,125.536308 95.448280,119.642723 92.400986,113.272171 
	C90.179230,108.627464 88.317703,103.799423 86.491417,98.978920 
	C82.921036,89.554871 83.087265,80.410339 89.329773,71.333542 
	C89.701988,70.291695 89.713615,69.735031 89.725250,69.178375 
	C89.268875,69.479485 88.812508,69.780586 88.356133,70.081696 
	C80.266373,77.504616 77.868576,89.163910 82.130714,100.883087 
	C83.777298,105.410538 85.770462,109.813583 87.367393,114.357071 
	C89.764130,121.176132 88.634209,127.462013 83.996368,133.071655 
	C83.360504,133.840744 82.799835,134.672165 82.207779,135.477234 
	C73.045158,147.936203 73.105659,154.295258 83.018234,166.113251 
	C88.463524,172.605240 93.153946,179.262848 89.920761,188.212311 
	C88.466393,192.238037 86.257935,196.035599 84.055374,199.736588 
	C80.585342,205.567337 77.769203,211.487656 79.230186,218.556366 
	C71.474106,218.158173 69.872887,216.452728 72.103989,209.515091 
	C73.502052,205.167801 76.049370,201.120880 78.485374,197.189728 
	C85.462921,185.929535 85.072472,178.632645 76.744530,168.545822 
	C74.420403,165.730835 72.018433,162.905655 70.190773,159.771118 
	C66.676498,153.743942 67.488853,147.508301 70.758904,141.697418 
	C73.117043,137.506989 75.979103,133.579010 78.835701,129.695267 
	C82.896729,124.174011 83.098251,118.346596 80.725945,112.198265 
	C80.128426,110.649689 79.574913,109.053665 78.741837,107.631348 
	C73.073891,97.954468 73.129204,88.050919 77.319931,77.906189 
	C77.789230,76.770142 77.869217,75.473259 78.238358,73.741364 
	C71.795425,78.381310 68.214249,91.389961 70.705963,100.005623 
	C72.089882,104.790810 73.855278,109.464790 75.281929,114.238731 
	C77.288818,120.954231 76.247726,127.076958 71.374481,132.359177 
	C70.361038,133.457672 69.463684,134.667786 68.559555,135.861862 
	C59.845089,147.370911 59.879349,154.377258 68.690002,165.915054 
	C80.808281,181.784256 80.776382,183.550400 70.139961,200.228928 
	C67.603287,204.206604 66.027229,208.796906 63.962387,213.205658 
	C58.305618,211.400360 57.449036,209.809036 60.490673,203.977493 
	C62.482357,200.158951 65.153923,196.700928 67.395554,193.005371 
	C70.184761,188.407043 71.787643,183.641815 69.156372,179.265823 
	C64.689438,188.338989 60.028721,197.805771 54.906189,208.210571 
	C50.972744,205.451355 47.583569,203.073929 43.661247,200.322525 
	C45.513206,198.908188 46.737003,197.973587 49.369488,195.963181 
	C46.396488,194.676041 43.683804,192.486343 42.423603,193.131943 
	C37.001614,195.909576 35.051079,192.266754 31.802904,188.471863 
	C34.252155,187.649933 35.987438,186.925934 37.792473,186.492325 
	C41.205429,185.672485 42.002377,184.114304 39.417450,180.906433 
	C39.556362,180.202652 39.837269,180.032257 40.157547,179.926773 
	C48.930435,179.227066 54.853275,173.488983 61.312740,168.092621 
	C60.684517,166.861664 60.147861,165.693558 59.511868,164.582306 
	C54.084393,155.098984 54.371925,145.908447 60.833111,136.989624 
	C62.101448,135.238861 63.196701,133.362869 64.461288,131.609192 
	C69.383522,124.783218 70.654243,117.686928 67.564957,109.520050 
	C63.563301,98.941208 63.414341,88.135681 68.654716,77.160248 
	C64.197769,79.430000 59.937813,87.072769 60.128529,93.312157 
	C60.310089,99.252022 61.107388,105.247002 62.358616,111.061821 
	C63.982147,118.606850 63.202957,125.252022 58.947147,131.957779 
	C55.342804,137.637054 53.220028,144.235016 50.082584,150.238800 
	C47.409431,155.354141 42.657631,157.950867 37.152466,159.162598 
	C36.061794,159.402664 34.873062,159.197205 33.354580,159.197205 
	C33.568226,161.434402 33.750942,163.347687 33.919498,165.112747 
	C30.734165,166.582138 27.511457,167.826889 24.526806,169.497040 
	C18.699562,172.757919 18.394062,172.708755 15.815969,165.462448 
	C20.899500,162.698563 26.054911,159.895584 32.158463,156.577118 
	C31.773516,155.527679 31.562618,153.125748 30.255590,152.023041 
	C29.364056,151.270859 26.797297,151.997055 25.235996,152.663223 
	C22.808643,153.698929 20.593105,155.235062 18.298962,156.578171 
	C11.646016,160.473145 10.101750,159.675659 9.324072,151.925034 
	C15.713006,148.887009 22.213476,146.053436 28.413067,142.668747 
	C29.891834,141.861420 30.366051,139.214096 31.302307,137.413071 
	C30.819061,136.824631 30.335814,136.236191 29.852568,135.647751 
	C26.030306,137.176056 22.206619,138.700790 18.386189,140.233658 
	C14.653481,141.731339 10.924094,143.237320 6.848416,144.878510 
	C5.935928,141.290131 5.332867,138.918594 4.910233,137.256577 
	C10.249284,134.932449 15.216023,132.785248 20.169453,130.607773 
	C22.601303,129.538757 24.926167,127.778343 27.444706,127.452065 
	C32.041615,126.856522 33.275780,124.424583 32.791313,120.095528 
	C27.294079,119.035095 22.904829,121.938408 18.354725,124.156616 
	C13.671435,126.439743 8.987323,128.573959 3.085614,126.702744 
	C2.919226,123.932884 2.745904,121.047600 2.532208,117.490211 
	C11.355083,119.496826 18.513096,116.205231 25.577543,112.305748 
	C27.717724,111.124382 30.136005,110.259621 32.533146,109.770065 
	C37.481503,108.759491 37.510899,108.903442 38.922894,102.244209 
	C36.516270,102.373886 34.178299,102.034393 32.180546,102.706352 
	C28.263077,104.024025 24.577585,106.014053 20.715597,107.519310 
	C17.487394,108.777542 14.213100,110.306534 10.837846,110.716583 
	C4.040926,111.542305 1.887983,109.053024 2.649107,102.284805 
	C8.216979,52.773045 42.341393,13.943760 90.961845,4.416840 
	C158.910034,-8.897249 211.320053,38.850601 220.967819,89.911110 
	C221.831100,94.479912 222.443420,99.107147 222.933289,103.732552 
	C223.475449,108.851807 221.986954,111.069290 216.851913,110.893555 
	C212.870056,110.757278 208.865616,109.150269 205.018509,107.782661 
	C200.820984,106.290459 196.861908,104.123863 192.657532,102.656204 
	C190.972214,102.067894 188.909943,102.559380 186.935989,102.559380 
	C186.994598,107.288651 188.873917,109.079506 192.784729,109.946571 
	C196.778519,110.832024 200.675232,112.533928 204.347900,114.402313 
	C210.146835,117.352379 216.029480,119.106682 222.467590,117.569824 
	C222.717560,118.028114 222.992493,118.306854 223.013657,118.603683 
	C223.667358,127.772537 221.050903,129.745758 212.377350,126.385956 
	C208.197525,124.766853 204.230835,122.590019 200.032318,121.029785 
	C197.799896,120.200172 195.278748,120.147499 192.872726,119.741554 
	C192.228134,124.481422 193.692581,126.482765 198.111511,127.384354 
	C201.730179,128.122650 204.949814,130.693802 208.429840,132.267853 
	C212.160828,133.955414 215.989380,135.427216 220.200851,137.169174 
	C220.089493,136.807816 220.279037,137.113617 220.259811,137.405685 
	C219.729172,145.470825 218.807358,146.029785 211.245789,142.546219 
	C206.188156,140.216187 201.203903,137.726868 195.977936,135.208160 
	C193.936142,139.924057 194.470627,141.957123 198.803772,143.553864 
	C204.669540,145.715347 210.112274,149.024811 216.401535,152.174896 
	C215.501236,154.266739 214.510574,156.568527 213.366714,159.226303 
	C206.939423,156.350525 201.022034,153.702881 194.555222,150.809402 
	C193.887054,153.624084 193.483643,155.323517 193.215759,156.451981 
	C199.051743,159.606964 204.423279,162.510864 210.166931,165.615936 
	C208.967560,167.768600 207.867294,169.743423 206.662643,171.905563 
	C201.542786,169.634430 196.747391,167.507217 191.540039,165.197281 
	C191.689148,163.720062 191.884933,161.780365 192.136826,159.284760 
	C185.899643,160.022003 181.817093,156.372299 177.833221,152.621658 
	C176.920654,151.762512 176.227798,150.593307 175.664413,149.452881 
	C172.818527,143.692307 170.536362,137.587204 167.134720,132.183182 
	C162.389328,124.644424 160.993927,117.536041 163.909103,108.634544 
	C167.674881,97.135704 166.536102,85.629776 157.408478,75.619438 
	C156.712570,75.670349 156.487991,76.076431 156.263397,76.482506 
M136.969040,69.107620 
	C136.785065,69.570053 136.601089,70.032494 136.914719,71.085472 
	C137.292938,71.057396 137.671158,71.029320 138.049377,71.001236 
	C137.807022,70.560188 137.564651,70.119148 136.969040,69.107620 
M80.328667,65.789368 
	C105.397079,55.923962 130.063309,57.524368 153.821243,68.892433 
	C155.375717,64.525658 156.473434,60.690723 158.096100,57.092510 
	C159.757202,53.409058 161.932556,49.957508 163.882812,46.404446 
	C163.647278,46.064278 163.411728,45.724110 163.176193,45.383942 
	C158.057373,46.953869 152.938538,48.523796 146.793427,50.408482 
	C148.363724,45.184662 149.691528,40.767567 151.019318,36.350471 
	C150.651260,35.878857 150.283203,35.407246 149.915131,34.935631 
	C142.364944,38.452248 134.814758,41.968864 126.972038,45.621735 
	C125.390213,41.872288 123.663635,37.779720 121.548187,32.765385 
	C124.893982,29.693169 128.360870,26.509769 132.349686,22.847122 
	C129.008743,22.617489 126.339035,22.071360 123.753113,22.337961 
	C119.460136,22.780560 117.473267,20.676865 116.210594,16.991499 
	C115.364655,14.522470 114.121284,12.189610 112.657310,8.900706 
	C110.853432,12.846678 109.356934,15.476330 108.440613,18.294617 
	C107.395401,21.509319 105.523170,22.649672 102.211731,22.513884 
	C99.222527,22.391314 96.208336,22.878139 92.133598,23.174032 
	C96.400047,27.347935 101.522774,30.117649 102.473106,33.927990 
	C103.399330,37.641647 100.058075,42.419651 98.538361,46.883270 
	C89.883575,42.971771 83.413887,36.668827 74.224930,36.083195 
	C75.887177,41.186825 77.384377,45.783688 79.068665,50.954971 
	C72.638405,48.952286 67.416832,47.326042 61.508987,45.486061 
	C65.518875,54.086449 68.957504,61.461613 72.476181,69.008438 
	C74.717400,68.066208 77.150688,67.043228 80.328667,65.789368 
M115.153511,84.961342 
	C117.461243,73.551674 126.920097,77.684143 133.924316,76.567291 
	C131.170074,66.630806 122.254166,62.449375 107.769043,64.113670 
	C99.312935,65.085251 93.454048,69.871429 93.089203,76.425682 
	C96.019112,76.561249 98.980812,76.502930 101.887421,76.874977 
	C107.305702,77.568527 110.961906,84.518768 108.437271,89.290085 
	C108.022903,90.073204 106.730362,90.884468 105.871574,90.855515 
	C101.844437,90.719749 97.826584,90.103065 93.806488,90.112434 
	C92.840225,90.114685 91.283661,91.703766 91.006317,92.814674 
	C88.373001,103.362411 99.158890,119.303970 109.884651,120.966393 
	C122.128693,122.864151 137.301315,105.082336 133.787994,92.833015 
	C133.486282,91.781075 132.116928,90.196182 131.348312,90.253914 
	C126.463310,90.620819 121.607773,91.379944 115.826988,92.128334 
	C115.675667,90.829475 115.382507,88.313255 115.153511,84.961342 
M198.908905,96.524467 
	C205.250443,99.238731 211.235748,104.390503 218.870773,99.554413 
	C214.559509,92.439339 209.419235,85.877892 206.416138,78.452126 
	C203.492615,71.223091 202.757156,63.109161 201.012161,55.161377 
	C192.380630,58.548115 190.046753,66.932083 187.818497,75.442467 
	C178.814697,71.686050 170.313416,67.123009 161.439026,72.060013 
	C167.882797,78.955452 173.988907,85.604927 180.274841,92.079811 
	C181.124252,92.954735 182.856125,93.052574 184.215500,93.338326 
	C188.877747,94.318336 193.556076,95.221855 198.908905,96.524467 
M35.619476,67.127144 
	C33.282017,61.785194 30.344515,57.003075 23.431021,54.069366 
	C26.684387,73.035149 14.765065,85.574387 6.543647,99.798439 
	C11.618451,101.974083 15.836117,101.349777 20.145489,99.558182 
	C25.493132,97.334938 30.881302,93.877190 36.365074,93.646988 
	C43.385147,93.352287 47.118809,90.095734 51.161404,85.243919 
	C55.117905,80.495422 60.213661,76.696175 65.006805,72.299141 
	C55.244835,66.858711 46.601887,72.253738 37.668751,74.824547 
	C37.023891,72.322540 36.449013,70.092049 35.619476,67.127144 
M133.417786,85.171455 
	C134.351227,81.642769 131.769531,81.246201 129.477386,81.163040 
	C126.442787,81.052948 123.303185,81.242027 121.087082,84.281288 
	C125.587784,84.840958 129.237000,85.294746 133.417786,85.171455 
M98.154175,81.016869 
	C91.800278,80.881027 91.493980,81.158760 92.621941,85.240234 
	C96.240646,85.042747 99.666885,84.855774 104.380081,84.598557 
	C102.037415,83.104012 100.514679,82.132553 98.154175,81.016869 
z"/>
<path fill="#117854" opacity="1.000000" stroke="none" 
	d="
M39.935120,179.650223 
	C39.837269,180.032257 39.556362,180.202652 39.174576,180.642456 
	C35.438465,181.483780 31.842604,182.120605 27.138205,182.953751 
	C26.469294,182.123642 24.989216,180.286865 23.193199,178.058014 
	C25.053278,176.875610 26.500423,175.847839 28.043699,174.993790 
	C33.997223,171.699020 35.261150,172.081100 38.427917,177.890610 
	C38.733757,178.451691 39.278732,178.882431 39.935120,179.650223 
z"/>
<path fill="#12734C" opacity="1.000000" stroke="none" 
	d="
M210.768829,217.294861 
	C210.201202,219.468338 209.633591,221.641815 208.823776,224.742661 
	C207.245636,223.040253 206.335312,222.058228 205.154861,220.784836 
	C204.415054,221.843796 203.720490,222.837982 202.297760,224.874451 
	C202.297760,219.473740 202.297760,215.327103 202.297760,211.092545 
	C207.288025,209.843399 206.018158,214.289764 207.985687,216.742935 
	C209.445816,217.096451 210.107315,217.195663 210.768829,217.294861 
z"/>
<path fill="#0D754F" opacity="1.000000" stroke="none" 
	d="
M195.004425,223.599609 
	C194.316452,221.844147 194.003174,220.096588 193.836349,218.335175 
	C193.578491,215.612518 195.300537,211.798798 188.345871,212.957062 
	C188.931595,212.433929 189.517303,211.910797 190.103027,211.387665 
	C193.320602,211.387665 196.538177,211.387665 201.433487,211.387665 
	C193.128464,213.574600 197.955612,219.885574 195.004425,223.599609 
z"/>
<path fill="#1C7D5A" opacity="1.000000" stroke="none" 
	d="
M211.126068,217.230225 
	C210.107315,217.195663 209.445816,217.096451 208.284882,216.949890 
	C208.455292,215.607544 208.953445,214.175919 209.844070,213.056595 
	C210.707336,211.971664 211.973938,211.207657 213.795715,209.694397 
	C213.795715,215.339874 213.795715,219.466034 213.795715,223.592194 
	C213.358673,223.649796 212.921631,223.707382 212.484604,223.764984 
	C212.150848,221.565186 211.817093,219.365372 211.126068,217.230225 
z"/>
<path fill="#107752" opacity="1.000000" stroke="none" 
	d="
M201.419510,179.130234 
	C200.856018,178.690552 200.562393,178.051407 200.180511,177.071991 
	C200.624649,177.464752 201.157013,178.197754 201.419510,179.130234 
z"/>
<path fill="#107752" opacity="1.000000" stroke="none" 
	d="
M191.498047,172.497559 
	C191.165436,172.810043 190.623108,172.895203 189.670502,172.996933 
	C189.936264,172.765762 190.612289,172.518005 191.498047,172.497559 
z"/>
<path fill="#F8FBFA" opacity="1.000000" stroke="none" 
	d="
M79.956314,65.904808 
	C77.150688,67.043228 74.717400,68.066208 72.476181,69.008438 
	C68.957504,61.461613 65.518875,54.086449 61.508987,45.486061 
	C67.416832,47.326042 72.638405,48.952286 79.068665,50.954971 
	C77.384377,45.783688 75.887177,41.186825 74.224930,36.083195 
	C83.413887,36.668827 89.883575,42.971771 98.538361,46.883270 
	C100.058075,42.419651 103.399330,37.641647 102.473106,33.927990 
	C101.522774,30.117649 96.400047,27.347935 92.133598,23.174032 
	C96.208336,22.878139 99.222527,22.391314 102.211731,22.513884 
	C105.523170,22.649672 107.395401,21.509319 108.440613,18.294617 
	C109.356934,15.476330 110.853432,12.846678 112.657310,8.900706 
	C114.121284,12.189610 115.364655,14.522470 116.210594,16.991499 
	C117.473267,20.676865 119.460136,22.780560 123.753113,22.337961 
	C126.339035,22.071360 129.008743,22.617489 132.349686,22.847122 
	C128.360870,26.509769 124.893982,29.693169 121.548187,32.765385 
	C123.663635,37.779720 125.390213,41.872288 126.972038,45.621735 
	C134.814758,41.968864 142.364944,38.452248 149.915131,34.935631 
	C150.283203,35.407246 150.651260,35.878857 151.019318,36.350471 
	C149.691528,40.767567 148.363724,45.184662 146.793427,50.408482 
	C152.938538,48.523796 158.057373,46.953869 163.176193,45.383942 
	C163.411728,45.724110 163.647278,46.064278 163.882812,46.404446 
	C161.932556,49.957508 159.757202,53.409058 158.096100,57.092510 
	C156.473434,60.690723 155.375717,64.525658 153.821243,68.892433 
	C130.063309,57.524368 105.397079,55.923962 79.956314,65.904808 
M106.751335,45.134995 
	C105.146263,46.433262 103.541199,47.731525 101.936127,49.029793 
	C102.074379,49.405598 102.212631,49.781406 102.350876,50.157211 
	C109.171402,50.157211 115.991928,50.157211 123.510956,50.157211 
	C115.212158,41.143280 112.912025,40.448135 106.751335,45.134995 
z"/>
<path fill="#F8FBFA" opacity="1.000000" stroke="none" 
	d="
M115.121429,85.379189 
	C115.382507,88.313255 115.675667,90.829475 115.826988,92.128334 
	C121.607773,91.379944 126.463310,90.620819 131.348312,90.253914 
	C132.116928,90.196182 133.486282,91.781075 133.787994,92.833015 
	C137.301315,105.082336 122.128693,122.864151 109.884651,120.966393 
	C99.158890,119.303970 88.373001,103.362411 91.006317,92.814674 
	C91.283661,91.703766 92.840225,90.114685 93.806488,90.112434 
	C97.826584,90.103065 101.844437,90.719749 105.871574,90.855515 
	C106.730362,90.884468 108.022903,90.073204 108.437271,89.290085 
	C110.961906,84.518768 107.305702,77.568527 101.887421,76.874977 
	C98.980812,76.502930 96.019112,76.561249 93.089203,76.425682 
	C93.454048,69.871429 99.312935,65.085251 107.769043,64.113670 
	C122.254166,62.449375 131.170074,66.630806 133.924316,76.567291 
	C126.920097,77.684143 117.461243,73.551674 115.121429,85.379189 
M105.441643,108.724823 
	C111.666122,114.874977 117.408356,113.986031 120.763878,105.982643 
	C115.684357,105.982643 110.763969,105.938438 105.848724,106.076950 
	C105.501869,106.086731 105.192978,107.443665 105.441643,108.724823 
M110.674271,98.349182 
	C109.439125,98.492836 108.203979,98.636490 105.833824,98.912163 
	C110.397636,102.192009 113.663750,102.505653 118.181374,98.543106 
	C115.070526,98.543106 113.286766,98.543106 110.674271,98.349182 
z"/>
<path fill="#F9FCFB" opacity="1.000000" stroke="none" 
	d="
M198.568588,96.339500 
	C193.556076,95.221855 188.877747,94.318336 184.215500,93.338326 
	C182.856125,93.052574 181.124252,92.954735 180.274841,92.079811 
	C173.988907,85.604927 167.882797,78.955452 161.439026,72.060013 
	C170.313416,67.123009 178.814697,71.686050 187.818497,75.442467 
	C190.046753,66.932083 192.380630,58.548115 201.012161,55.161377 
	C202.757156,63.109161 203.492615,71.223091 206.416138,78.452126 
	C209.419235,85.877892 214.559509,92.439339 218.870773,99.554413 
	C211.235748,104.390503 205.250443,99.238731 198.568588,96.339500 
z"/>
<path fill="#F9FCFB" opacity="1.000000" stroke="none" 
	d="
M35.746803,67.494347 
	C36.449013,70.092049 37.023891,72.322540 37.668751,74.824547 
	C46.601887,72.253738 55.244835,66.858711 65.006805,72.299141 
	C60.213661,76.696175 55.117905,80.495422 51.161404,85.243919 
	C47.118809,90.095734 43.385147,93.352287 36.365074,93.646988 
	C30.881302,93.877190 25.493132,97.334938 20.145489,99.558182 
	C15.836117,101.349777 11.618451,101.974083 6.543647,99.798439 
	C14.765065,85.574387 26.684387,73.035149 23.431021,54.069366 
	C30.344515,57.003075 33.282017,61.785194 35.746803,67.494347 
z"/>
<path fill="#D8E7E1" opacity="1.000000" stroke="none" 
	d="
M133.151993,85.459991 
	C129.237000,85.294746 125.587784,84.840958 121.087082,84.281288 
	C123.303185,81.242027 126.442787,81.052948 129.477386,81.163040 
	C131.769531,81.246201 134.351227,81.642769 133.151993,85.459991 
z"/>
<path fill="#E6F0EC" opacity="1.000000" stroke="none" 
	d="
M98.573059,81.088982 
	C100.514679,82.132553 102.037415,83.104012 104.380081,84.598557 
	C99.666885,84.855774 96.240646,85.042747 92.621941,85.240234 
	C91.493980,81.158760 91.800278,80.881027 98.573059,81.088982 
z"/>
<path fill="#F9FCFB" opacity="1.000000" stroke="none" 
	d="
M88.536957,70.355965 
	C88.812508,69.780586 89.268875,69.479485 89.725250,69.178375 
	C89.713615,69.735031 89.701988,70.291695 89.417770,70.988792 
	C89.002716,70.962898 88.860245,70.796562 88.536957,70.355965 
z"/>
<path fill="#F9FCFB" opacity="1.000000" stroke="none" 
	d="
M156.516113,76.318810 
	C156.487991,76.076431 156.712570,75.670349 157.082825,75.515160 
	C157.075272,75.895737 156.922043,76.025421 156.516113,76.318810 
z"/>
<path fill="#F9FCFB" opacity="1.000000" stroke="none" 
	d="
M137.322281,69.678108 
	C137.564651,70.119148 137.807022,70.560188 138.049377,71.001236 
	C137.671158,71.029320 137.292938,71.057396 136.896790,70.591057 
	C137.026642,69.957130 137.174454,69.817619 137.322281,69.678108 
z"/>
<path fill="#F9FCFB" opacity="1.000000" stroke="none" 
	d="
M136.647980,70.295792 
	C136.601089,70.032494 136.785065,69.570053 137.145660,69.392868 
	C137.174454,69.817619 137.026642,69.957130 136.647980,70.295792 
z"/>
<path fill="#0F7651" opacity="1.000000" stroke="none" 
	d="
M107.057022,44.930290 
	C112.912025,40.448135 115.212158,41.143280 123.510956,50.157211 
	C115.991928,50.157211 109.171402,50.157211 102.350876,50.157211 
	C102.212631,49.781406 102.074379,49.405598 101.936127,49.029793 
	C103.541199,47.731525 105.146263,46.433262 107.057022,44.930290 
z"/>
<path fill="#0F7652" opacity="1.000000" stroke="none" 
	d="
M105.154037,108.449493 
	C105.192978,107.443665 105.501869,106.086731 105.848724,106.076950 
	C110.763969,105.938438 115.684357,105.982643 120.763878,105.982643 
	C117.408356,113.986031 111.666122,114.874977 105.154037,108.449493 
z"/>
<path fill="#25805D" opacity="1.000000" stroke="none" 
	d="
M111.088638,98.446144 
	C113.286766,98.543106 115.070526,98.543106 118.181374,98.543106 
	C113.663750,102.505653 110.397636,102.192009 105.833824,98.912163 
	C108.203979,98.636490 109.439125,98.492836 111.088638,98.446144 
z"/>
</svg>